<?xml version="1.0" encoding="UTF-8" standalone="no"?>
<svg
   width="64"
   height="64"
   version="1.1"
   id="svg3"
   xmlns="http://www.w3.org/2000/svg"
   xmlns:svg="http://www.w3.org/2000/svg">
  <defs
     id="defs3" />
  <path
     fill="#fff"
     d="M 52.697143,13.784355 A 48.565822,47.541536 0 0 0 40.394848,9.9994645 c -0.528812,0.9370065 -1.148634,2.1996605 -1.575448,3.2027185 -4.586685,-0.675873 -9.132571,-0.675873 -13.632952,0 A 34.953268,34.216082 0 0 0 23.590602,9.9994645 48.397921,47.377177 0 0 0 11.28046,13.793572 C 3.4942374,25.309531 1.3837033,36.54285 2.4397548,47.611808 c 5.1625705,3.774138 10.1682232,6.0675 15.0875732,7.568246 a 37.534554,36.742926 0 0 0 3.232491,-5.208831 31.772561,31.102456 0 0 1 -5.090388,-2.425464 c 0.426813,-0.308751 0.844212,-0.632863 1.247489,-0.964657 9.812022,4.491487 20.471397,4.491487 30.165731,0 0.407984,0.331794 0.825383,0.655906 1.24749,0.964657 a 31.703517,31.03487 0 0 1 -5.096664,2.430072 37.361946,36.573958 0 0 0 3.230921,5.208831 C 51.388455,53.683916 56.397246,51.390556 61.559817,47.611808 62.799462,34.7779 59.446144,23.650569 52.697143,13.784355 Z m -30.60196,27.019568 c -2.945334,0 -5.360287,-2.691204 -5.360287,-5.969189 0,-3.277984 2.363171,-5.975333 5.360287,-5.975333 2.997115,0 5.413637,2.69274 5.360286,5.975333 0.0046,3.277985 -2.363171,5.969189 -5.360286,5.969189 z m 19.810775,0 c -2.945333,0 -5.360286,-2.691204 -5.360286,-5.969189 0,-3.277984 2.363171,-5.975333 5.360286,-5.975333 2.997115,0 5.413638,2.69274 5.360287,5.975333 0,3.277985 -2.363172,5.969189 -5.360287,5.969189 z"
     id="path1"
     style="fill:#dedede;fill-opacity:1;stroke-width:1.55255" />
  <circle
     style="fill:#fa5c5c;fill-opacity:1;stroke-width:1.27773"
     id="path3"
     cx="50.393639"
     cy="16.916372"
     r="8.3391857" />
</svg>
