<?xml version="1.0" encoding="UTF-8" standalone="no"?>
<svg
   width="64"
   height="64"
   version="1.1"
   id="svg3"
   xmlns="http://www.w3.org/2000/svg"
   xmlns:svg="http://www.w3.org/2000/svg">
  <defs
     id="defs3" />
  <g
     id="g50"
     transform="matrix(1.3515314,0,0,1.3515314,-11.103489,-11.311461)"
     style="fill:#dedede;fill-opacity:1">
    <path
       style="fill:#dedede;fill-opacity:1"
       d="m 13.727426,47.442025 c -1.088007,0.06279 -1.548157,-0.0206 -2.13018,-0.385995 -0.408314,-0.256344 -0.974462,-0.912522 -1.258107,-1.458173 -0.3915051,-0.753144 -0.5148107,-1.382054 -0.5119543,-2.611181 0.00292,-1.256857 0.3707723,-3.016693 1.6442063,-7.866036 0.902245,-3.435821 1.858193,-6.799381 2.12433,-7.474576 0.266138,-0.675196 0.858922,-1.813904 1.317298,-2.530462 0.458376,-0.716558 1.373421,-1.828623 2.033432,-2.471257 0.660011,-0.642633 1.748417,-1.465201 2.418679,-1.827927 0.769752,-0.416568 1.702478,-0.701721 2.532095,-0.774112 1.116982,-0.09747 1.434521,-0.03208 2.12298,0.437156 0.44525,0.303471 1.04162,0.972126 1.325268,1.4859 l 0.515724,0.934134 5.382385,-0.879416 c 2.960312,-0.483679 5.711525,-0.937092 6.113805,-1.007583 0.563902,-0.09881 0.79079,-0.29848 0.990648,-0.871792 0.142576,-0.408994 0.517437,-1.116219 0.833024,-1.571612 0.315588,-0.455393 1.014723,-1.079363 1.553635,-1.386601 0.765435,-0.436381 1.308814,-0.556934 2.483278,-0.550934 1.054543,0.0054 1.861939,0.166747 2.704122,0.540426 0.73745,0.32721 1.700635,1.056897 2.496547,1.891327 0.712726,0.747219 1.506442,1.834623 1.763813,2.416453 0.257371,0.58183 1.207757,3.577221 2.11197,6.656424 1.41334,4.812985 1.646471,5.860484 1.661473,7.465292 0.01533,1.639562 -0.06735,2.032553 -0.679345,3.229217 -0.463366,0.906041 -1.028479,1.595592 -1.686881,2.058335 -0.815291,0.573008 -1.271029,0.711733 -2.581425,0.785777 -1.322473,0.07473 -1.801293,-0.0062 -2.833992,-0.478987 -0.683459,-0.312897 -1.645936,-0.922676 -2.138838,-1.355062 -0.492902,-0.432387 -1.252978,-1.343568 -1.689057,-2.024847 -0.695189,-1.08608 -0.868441,-1.224134 -1.406244,-1.12055 -0.337355,0.06498 -4.620617,0.767154 -9.518361,1.560393 -7.104303,1.150615 -8.975145,1.526253 -9.251936,1.857658 -0.190821,0.228472 -0.711243,1.064772 -1.156492,1.858444 -0.445249,0.793672 -1.441281,2.07528 -2.213405,2.848018 -0.772123,0.772738 -1.91705,1.660823 -2.544282,1.973521 -0.719841,0.358867 -1.652232,0.598078 -2.528213,0.648628 z M 31.888995,35.932074 c 0.08602,0 1.477954,-1.886176 3.093181,-4.191501 1.615227,-2.305325 2.886017,-4.242259 2.823979,-4.304297 -0.06204,-0.06204 -0.691233,-0.01314 -1.398212,0.108663 L 35.122528,27.7664 v -1.930923 c 0,-1.391357 -0.08079,-1.930494 -0.289123,-1.929389 -0.159017,8.44e-4 -1.486092,0.208322 -2.949054,0.461063 -1.462963,0.252741 -2.737995,0.46022 -2.833406,0.461063 -0.09541,8.44e-4 -0.173473,0.879237 -0.173473,1.951984 0,1.658397 -0.06061,1.968128 -0.404773,2.068511 -0.222624,0.06493 -0.899172,0.18785 -1.503439,0.273148 -0.604267,0.0853 -1.098668,0.198827 -1.098668,0.252288 0,0.05346 1.31895,1.550865 2.930999,3.327565 1.61205,1.7767 3.001381,3.230364 3.087404,3.230364 z"
       id="path51" />
  </g>
</svg>
